<svg xmlns="http://www.w3.org/2000/svg" viewBox="0 0 720 450" role="img" aria-label="Commercial office space">
  <rect width="720" height="450" fill="#f8f2e8"/>
  <rect x="94" y="96" width="532" height="274" rx="8" fill="#ffffff"/>
  <rect x="128" y="136" width="170" height="234" fill="#18201d"/>
  <rect x="332" y="136" width="260" height="234" fill="#fffdf8"/>
  <g fill="#d99f31">
    <rect x="158" y="164" width="42" height="42" rx="4"/>
    <rect x="228" y="164" width="42" height="42" rx="4"/>
    <rect x="158" y="238" width="42" height="42" rx="4"/>
    <rect x="228" y="238" width="42" height="42" rx="4"/>
  </g>
  <g fill="#136b4c">
    <rect x="366" y="166" width="70" height="44" rx="5"/>
    <rect x="468" y="166" width="70" height="44" rx="5"/>
    <rect x="366" y="244" width="70" height="44" rx="5"/>
    <rect x="468" y="244" width="70" height="44" rx="5"/>
  </g>
  <rect x="420" y="310" width="74" height="60" fill="#c85d3d"/>
  <path d="M86 370h548" stroke="#18201d" stroke-width="12" stroke-linecap="round" opacity=".17"/>
</svg>
